# xmcd
#
# Track frame offsets: 
#        150
#        18680
#        39242
#        62157
#        83180
#        106622
#        129607
#        148980
#        169705
#        188976
#        207181
#        226056
#
# Disc length: 3219 seconds
#
# Revision: 0
# Processed by: cddbd v1.5.2PL0 Copyright (c) Steve Scherf et al.
# Submitted via: ExactAudioCopy v0.95b4
#
DISCID=a00c910c
DTITLE=Paul O'Brian - Walk back home
DYEAR=2009
DGENRE=Folk
TTITLE0=Sacred Line
TTITLE1=Berlin At 5
TTITLE2=American Car
TTITLE3=Walk Back Home
TTITLE4=Madrona
TTITLE5=Romero
TTITLE6=Light The Way
TTITLE7=He Can Dance
TTITLE8=Without A Trace
TTITLE9=Misty Mountain
TTITLE10=The Finest Thread
TTITLE11=Anniversary Day
EXTD=
EXTT0=
EXTT1=
EXTT2=
EXTT3=
EXTT4=
EXTT5=
EXTT6=
EXTT7=
EXTT8=
EXTT9=
EXTT10=
EXTT11=
PLAYORDER=
